<svg width="48" height="49" viewBox="0 0 48 49" fill="none" xmlns="http://www.w3.org/2000/svg">
<g clip-path="url(#clip0_273_9)">
<path d="M48 24.2529C48 10.9967 37.2562 0.25293 24 0.25293C10.7438 0.25293 0 10.9967 0 24.2529C0 36.2342 8.775 46.1623 20.25 47.9623V31.1904H14.1562V24.2529H20.25V18.9654C20.25 12.9514 23.8313 9.62793 29.3156 9.62793C31.9406 9.62793 34.6875 10.0967 34.6875 10.0967V16.0029H31.6594C28.6781 16.0029 27.75 17.8545 27.75 19.7529V24.2529H34.4062L33.3422 31.1904H27.75V47.9623C39.225 46.1623 48 36.2342 48 24.2529Z" fill="white"/>
<path d="M33.3422 31.1904L34.4062 24.2529H27.75V19.7529C27.75 17.8545 28.6781 16.0029 31.6594 16.0029H34.6875V10.0967C34.6875 10.0967 31.9406 9.62793 29.3156 9.62793C23.8313 9.62793 20.25 12.9514 20.25 18.9654V24.2529H14.1562V31.1904H20.25V47.9623C21.4734 48.1545 22.725 48.2529 24 48.2529C25.275 48.2529 26.5266 48.1545 27.75 47.9623V31.1904H33.3422Z" fill="black"/>
</g>
<defs>
<clipPath id="clip0_273_9">
<rect width="48" height="48" fill="white" transform="translate(0 0.25293)"/>
</clipPath>
</defs>
</svg>
