<svg width="62" height="62" viewBox="0 0 62 62" fill="none" xmlns="http://www.w3.org/2000/svg">
<g id="Linear / School / Diploma Verified">
<path id="Vector" d="M18.0833 46.4956C12.4645 46.4643 9.42157 46.2151 7.43658 44.2302C5.16666 41.9602 5.16666 38.3069 5.16666 31.0001L5.16666 20.6667C5.16666 13.36 5.16666 9.70659 7.43658 7.43667C9.7065 5.16675 13.3599 5.16675 20.6667 5.16675L41.3333 5.16675C48.6401 5.16675 52.2935 5.16675 54.5634 7.43667C56.8333 9.70659 56.8333 13.36 56.8333 20.6667V31.0001C56.8333 38.3068 56.8333 41.9602 54.5634 44.2302C52.6779 46.1156 49.8379 46.435 44.7424 46.4891L42.625 46.4956" stroke="black" stroke-width="3"/>
<path id="Vector_2" d="M23.25 15.5L38.75 15.5" stroke="black" stroke-width="3" stroke-linecap="round"/>
<path id="Vector_3" d="M18.0833 24.5417H43.9167" stroke="black" stroke-width="3" stroke-linecap="round"/>
<path id="Vector_4" d="M28.1342 36.0254C29.7856 34.6181 32.2144 34.6181 33.8658 36.0254C34.5735 36.6285 35.4533 36.993 36.3801 37.0669C38.543 37.2395 40.2604 38.957 40.433 41.1198C40.507 42.0466 40.8714 42.9264 41.4745 43.6341C42.8818 45.2855 42.8818 47.7143 41.4745 49.3657C40.8714 50.0733 40.507 50.9532 40.433 51.88C40.2604 54.0428 38.543 55.7603 36.3801 55.9329C35.4533 56.0068 34.5735 56.3713 33.8658 56.9743C32.2144 58.3816 29.7856 58.3816 28.1342 56.9743C27.4266 56.3713 26.5467 56.0068 25.6199 55.9329C23.4571 55.7603 21.7396 54.0428 21.567 51.88C21.4931 50.9532 21.1286 50.0733 20.5256 49.3657C19.1183 47.7143 19.1183 45.2855 20.5256 43.6341C21.1286 42.9264 21.4931 42.0466 21.567 41.1198C21.7396 38.957 23.4571 37.2395 25.6199 37.0669C26.5467 36.993 27.4266 36.6285 28.1342 36.0254Z" stroke="black" stroke-width="3"/>
<path id="Vector_5" d="M27.125 47.0167L29.3393 49.0834L34.875 43.9167" stroke="black" stroke-width="3" stroke-linecap="round" stroke-linejoin="round"/>
</g>
</svg>
