<svg width="59" height="56" viewBox="0 0 59 56" fill="none" xmlns="http://www.w3.org/2000/svg">
<g id="Group 367">
<g id="Group 365">
<circle id="Vector" cx="29.75" cy="13" r="11" stroke="black" stroke-width="3"/>
<path id="Vector_2" d="M43.75 21.25C48.3063 21.25 52 18.172 52 14.375C52 10.578 48.3063 7.5 43.75 7.5" stroke="black" stroke-width="3" stroke-linecap="round"/>
<path id="Vector_3" d="M15.75 21.25C11.1937 21.25 7.5 18.172 7.5 14.375C7.5 10.578 11.1937 7.5 15.75 7.5" stroke="black" stroke-width="3" stroke-linecap="round"/>
</g>
<g id="Group 366">
<ellipse id="Vector_4" cx="29.75" cy="43.25" rx="16.5" ry="11" stroke="black" stroke-width="3"/>
<path id="Vector_5" d="M49.25 48.75C54.0742 47.6921 57.5 45.0129 57.5 41.875C57.5 38.7371 54.0742 36.0579 49.25 35" stroke="black" stroke-width="3" stroke-linecap="round"/>
<path id="Vector_6" d="M10.25 48.75C5.42582 47.6921 2 45.0129 2 41.875C2 38.7371 5.42582 36.0579 10.25 35" stroke="black" stroke-width="3" stroke-linecap="round"/>
</g>
</g>
</svg>
