<svg width="330" height="204" viewBox="0 0 330 204" fill="none" xmlns="http://www.w3.org/2000/svg">
<path d="M208.094 66.6855L167.145 52.1141" stroke="#CEE4FF" stroke-width="1.60375"/>
<path d="M208.094 66.6854L262.511 125.795" stroke="#CEE4FF" stroke-width="1.60375"/>
<path d="M344 155.075L262.511 125.795" stroke="#CEE4FF" stroke-width="1.60375"/>
<path d="M344 184.63L262.511 125.795" stroke="#CEE4FF" stroke-width="1.60375"/>
<path d="M126.469 66.6851L167.145 52.1137" stroke="#CEE4FF" stroke-width="1.60375"/>
<path d="M87 80.5L127.677 65.9287" stroke="#CEE4FF" stroke-width="1.60375"/>
<path d="M262.511 37.4054L167.145 52.114" stroke="#CEE4FF" stroke-width="1.60375"/>
<path d="M262.511 37.4052L317.064 66.9601" stroke="#CEE4FF" stroke-width="1.60375"/>
<path d="M108.5 15.5002L167.146 52.114" stroke="#CEE4FF" stroke-width="1.60375"/>
<path d="M-9.7092 37.5428L86.5001 79.9998" stroke="#CEE4FF" stroke-width="1.60375"/>
<rect width="9.76458" height="9.76458" rx="4.88229" transform="matrix(1 0 0 -1 163 57.0474)" fill="#0069FF"/>
<path d="M125 66.0944C125 67.173 125.874 68.0474 126.953 68.0474C128.031 68.0474 128.906 67.173 128.906 66.0944C128.906 65.0159 128.031 64.1415 126.953 64.1415C125.874 64.1415 125 65.0159 125 66.0944Z" fill="#0069FF"/>
<path d="M85 79.9528C85 81.0314 85.8743 81.9058 86.9529 81.9058C88.0315 81.9058 88.9058 81.0314 88.9058 79.9528C88.9058 78.8743 88.0315 77.9999 86.9529 77.9999C85.8743 77.9999 85 78.8743 85 79.9528Z" fill="#0069FF"/>
<path d="M206 67.0944C206 68.173 206.874 69.0474 207.953 69.0474C209.031 69.0474 209.906 68.173 209.906 67.0944C209.906 66.0159 209.031 65.1415 207.953 65.1415C206.874 65.1415 206 66.0159 206 67.0944Z" fill="#0069FF"/>
<path d="M260 37.0944C260 38.173 260.874 39.0474 261.953 39.0474C263.031 39.0474 263.906 38.173 263.906 37.0944C263.906 36.0159 263.031 35.1415 261.953 35.1415C260.874 35.1415 260 36.0159 260 37.0944Z" fill="#0069FF"/>
<path d="M261 126.094C261 127.173 261.874 128.047 262.953 128.047C264.031 128.047 264.906 127.173 264.906 126.094C264.906 125.016 264.031 124.142 262.953 124.142C261.874 124.142 261 125.016 261 126.094Z" fill="#0069FF"/>
</svg>
