<svg width="63" height="68" viewBox="0 0 63 68" fill="none" xmlns="http://www.w3.org/2000/svg">
<g clip-path="url(#clip0_10_3899)">
<path d="M52.9653 23.039C52.9653 32.6785 45.151 40.4929 35.5115 40.4929C25.872 40.4929 18.0576 32.6785 18.0576 23.039C18.0576 13.3995 25.872 5.58514 35.5115 5.58514C45.151 5.58514 52.9653 13.3995 52.9653 23.039Z" stroke="#6271FF" stroke-width="3"/>
<path d="M35.5114 12.5668V33.5114" stroke="#6271FF" stroke-width="2.5" stroke-linecap="round"/>
<path d="M40.7476 18.6757C40.7476 16.2658 38.4033 14.3123 35.5114 14.3123C32.6196 14.3123 30.2753 16.2658 30.2753 18.6757C30.2753 21.0856 32.6196 23.0392 35.5114 23.0392C38.4033 23.0392 40.7476 24.9928 40.7476 27.4026C40.7476 29.8125 38.4033 31.7661 35.5114 31.7661C32.6196 31.7661 30.2753 29.8125 30.2753 27.4026" stroke="#6271FF" stroke-width="3" stroke-linecap="round"/>
</g>
<path d="M11.4251 43.9836H2V64.9282H11.4251V43.9836Z" stroke="#6271FF" stroke-width="3"/>
<path d="M11.425 48.1732C11.425 48.1732 15.7786 46.0374 18.7557 46.0788C22.2496 46.1273 23.7211 48.4686 27.1335 49.2205C27.1335 49.2205 32.2169 50.4017 35.5114 50.2671C37.997 50.1656 39.7003 50.2671 41.7948 50.2671C43.53 50.2671 44.2584 50.7648 44.9364 52.3622M44.9364 52.3622C49.8441 50.7263 57.5032 48.1732 57.5032 48.1732C57.5032 48.1732 59.7134 47.3748 60.6449 48.1732C61.9252 49.2706 59.5977 52.3622 59.5977 52.3622L40.7475 63.8817C40.7475 63.8817 37.7031 65.7596 35.5114 65.9762C32.0341 66.3198 27.1335 62.8345 27.1335 62.8345C27.1335 62.8345 20.7993 58.6407 16.6612 59.6928C14.35 60.2804 11.425 62.8345 11.425 62.8345M44.9364 52.3622C43.7095 53.1799 43.1341 53.8396 41.7948 54.456C39.5349 55.4961 37.9984 55.4454 35.5114 55.5033C32.6203 55.5705 33.0318 55.3301 30.2752 54.456" stroke="#6271FF" stroke-width="3"/>
<defs>
<clipPath id="clip0_10_3899">
<rect width="41.8892" height="41.8892" fill="white" transform="translate(14.5668)"/>
</clipPath>
</defs>
</svg>
