<svg width="64" height="64" viewBox="0 0 64 64" fill="none" xmlns="http://www.w3.org/2000/svg">
<g id="Group 15">
<path id="Vector" d="M54.1619 25.1123V23C54.1619 11.402 44.1539 2 31.8084 2C19.463 2 9.45499 11.402 9.45499 23V25.1123C9.45499 27.6473 8.65627 30.1255 7.1595 32.2348L3.49161 37.4035C0.141357 42.1246 2.699 48.5417 8.52593 50.0347C23.7692 53.9402 39.8476 53.9402 55.0909 50.0347C60.9178 48.5417 63.4755 42.1246 60.1252 37.4035L56.4573 32.2348C54.9606 30.1255 54.1619 27.6473 54.1619 25.1123Z" stroke="#6271FF" stroke-width="4"/>
<path id="Vector_2" d="M17.4382 53C19.53 58.2434 25.174 62 31.8083 62C38.4426 62 44.0866 58.2434 46.1784 53" stroke="#6271FF" stroke-width="4" stroke-linecap="round"/>
</g>
</svg>
