<svg width="64" height="66" viewBox="0 0 64 66" fill="none" xmlns="http://www.w3.org/2000/svg">
<g id="Group 10">
<path id="Vector 72" d="M51.7195 62.781L35.3114 46.0378C35.3114 46.0378 36.0626 41.8742 34.7542 39.846C33.416 37.7717 29.2435 36.8764 29.2435 36.8764L30.9153 35.1073L8.1298 12.1723L5.52928 11.6668L2 4.02182L3.98135 2L11.9067 5.91728V8.44456L35.3114 31.1269L36.9832 29.421C36.9832 29.421 37.2049 33.4663 38.8407 35.1073C40.8257 37.0988 45.8373 36.4973 45.8373 36.4973L61.8739 53.6828C61.8739 53.6828 63.2526 60.453 60.5736 62.781C57.9411 65.0687 51.7195 62.781 51.7195 62.781Z" stroke="#6271FF" stroke-width="2.5"/>
<path id="Vector 71" d="M47.9412 21.0165L19.1202 50.8661C19.1202 50.8661 21.4255 57.5557 18.1349 60.5436C15.4992 62.9368 8.52784 64 8.52784 64L12.1613 59.3497L11.2375 54.2596L6.74192 53.317L2 57.2131C2 57.2131 2.2245 49.635 5.51025 47.1585C8.41362 44.9702 14.6862 46.0274 14.6862 46.0274L43.692 16.3034C43.692 16.3034 43.1069 9.22428 45.8474 6.18585C48.5634 3.17463 56.5013 3.35796 56.5013 3.35796L51.7594 8.76233L52.7447 12.5957L57.0556 13.664L62.2286 8.38537C62.2286 8.38537 61.4425 16.7071 58.5336 19.4454C55.2557 22.531 47.9412 21.0165 47.9412 21.0165Z" fill="white" stroke="#6271FF" stroke-width="2.5"/>
</g>
</svg>
