<svg width="330" height="213" viewBox="0 0 330 213" fill="none" xmlns="http://www.w3.org/2000/svg">
<path d="M99.906 75.6855L140.855 61.1141" stroke="#CEE4FF" stroke-width="1.60375"/>
<path d="M99.906 75.6854L45.4892 134.795" stroke="#CEE4FF" stroke-width="1.60375"/>
<path d="M-35.9999 164.075L45.4893 134.795" stroke="#CEE4FF" stroke-width="1.60375"/>
<path d="M-36 193.63L45.489 134.795" stroke="#CEE4FF" stroke-width="1.60375"/>
<path d="M181.531 75.6851L140.855 61.1137" stroke="#CEE4FF" stroke-width="1.60375"/>
<path d="M109.5 54L140.855 61.1143" stroke="#CEE4FF" stroke-width="1.60375"/>
<path d="M18.5001 60.4998L-9.06394 75.96" stroke="#CEE4FF" stroke-width="1.60375"/>
<path d="M209.42 16.8502L140.855 61.1138" stroke="#CEE4FF" stroke-width="1.60375"/>
<path d="M209.42 16.8504L263.156 75.2729" stroke="#CEE4FF" stroke-width="1.60375"/>
<path d="M317.709 46.5428L263.156 75.2729" stroke="#CEE4FF" stroke-width="1.60375"/>
<path d="M317.709 46.5428L344.918 75.8228" stroke="#CEE4FF" stroke-width="1.60375"/>
<path d="M317.709 46.5424L344.782 16.9875" stroke="#CEE4FF" stroke-width="1.60375"/>
<rect width="62" height="62" transform="translate(33 7)" fill="white"/>
<path d="M89.8334 50.9167V38.0001C89.8334 23.7327 78.2674 12.1667 64 12.1667C49.7327 12.1667 38.1667 23.7327 38.1667 38.0001V53.5001" stroke="black" stroke-width="3"/>
<path d="M53.6667 46.2333C53.6667 44.7392 53.6667 43.9921 53.4884 43.3988C53.076 42.0268 51.9993 40.9862 50.6591 40.6642C50.0796 40.525 49.3674 40.5838 47.9432 40.7014C45.4716 40.9055 44.2358 41.0075 43.2283 41.3972C40.9051 42.2959 39.1326 44.3018 38.4589 46.7947C38.1667 47.8758 38.1667 49.1723 38.1667 51.7653V52.2443C38.1667 54.9029 38.1667 56.2322 38.4846 57.3569C39.1084 59.5643 40.6002 61.3901 42.5876 62.3789C43.6003 62.8827 44.8558 63.09 47.3667 63.5046C49.033 63.7798 49.8662 63.9174 50.5404 63.7785C51.869 63.5048 52.9647 62.5257 53.4304 61.1958C53.6667 60.5209 53.6667 59.6388 53.6667 57.8745V46.2333Z" stroke="black" stroke-width="3"/>
<path d="M74.3333 46.2333C74.3333 44.7392 74.3333 43.9921 74.5116 43.3988C74.924 42.0268 76.0007 40.9862 77.3409 40.6642C77.9204 40.525 78.6326 40.5838 80.0568 40.7014C82.5284 40.9055 83.7642 41.0075 84.7717 41.3972C87.0949 42.2959 88.8674 44.3018 89.5411 46.7947C89.8333 47.8758 89.8333 49.1723 89.8333 51.7653V52.2443C89.8333 54.9029 89.8333 56.2322 89.5154 57.3569C88.8916 59.5643 87.3998 61.3901 85.4124 62.3789C84.3997 62.8827 83.1442 63.09 80.6333 63.5046C78.967 63.7798 78.1338 63.9174 77.4596 63.7785C76.131 63.5048 75.0353 62.5257 74.5696 61.1958C74.3333 60.5209 74.3333 59.6388 74.3333 57.8745V46.2333Z" stroke="black" stroke-width="3"/>
<path d="M64 23.7917L64 36.7084" stroke="black" stroke-width="3" stroke-linecap="round"/>
<path d="M71.75 27.6667L71.75 32.8334" stroke="black" stroke-width="3" stroke-linecap="round"/>
<path d="M56.25 27.6667L56.25 32.8334" stroke="black" stroke-width="3" stroke-linecap="round"/>
<rect x="145" y="66.0474" width="9.76458" height="9.76458" rx="4.88229" transform="rotate(180 145 66.0474)" fill="#0069FF"/>
<path d="M183 75.0944C183 76.173 182.126 77.0474 181.047 77.0474C179.969 77.0474 179.094 76.173 179.094 75.0944C179.094 74.0159 179.969 73.1415 181.047 73.1415C182.126 73.1415 183 74.0159 183 75.0944Z" fill="#0069FF"/>
<path d="M102 76.0944C102 77.173 101.126 78.0474 100.047 78.0474C98.9685 78.0474 98.0942 77.173 98.0942 76.0944C98.0942 75.0159 98.9685 74.1415 100.047 74.1415C101.126 74.1415 102 75.0159 102 76.0944Z" fill="#0069FF"/>
<path d="M47 135.094C47 136.173 46.1257 137.047 45.0471 137.047C43.9685 137.047 43.0942 136.173 43.0942 135.094C43.0942 134.016 43.9685 133.142 45.0471 133.142C46.1257 133.142 47 134.016 47 135.094Z" fill="#0069FF"/>
<path d="M265 75.0944C265 76.173 264.126 77.0474 263.047 77.0474C261.969 77.0474 261.094 76.173 261.094 75.0944C261.094 74.0159 261.969 73.1415 263.047 73.1415C264.126 73.1415 265 74.0159 265 75.0944Z" fill="#0069FF"/>
<path d="M320 46.0944C320 47.173 319.126 48.0474 318.047 48.0474C316.969 48.0474 316.094 47.173 316.094 46.0944C316.094 45.0159 316.969 44.1415 318.047 44.1415C319.126 44.1415 320 45.0159 320 46.0944Z" fill="#0069FF"/>
<path d="M211 17.0944C211 18.173 210.126 19.0474 209.047 19.0474C207.969 19.0474 207.094 18.173 207.094 17.0944C207.094 16.0159 207.969 15.1415 209.047 15.1415C210.126 15.1415 211 16.0159 211 17.0944Z" fill="#0069FF"/>
</svg>
