<svg width="77" height="68" viewBox="0 0 77 68" fill="none" xmlns="http://www.w3.org/2000/svg">
<g id="Group 11">
<path id="Vector" d="M23.0153 55.5091C26.1808 55.5091 28.7469 57.9048 28.7469 60.86C28.7469 63.8153 26.1808 66.2109 23.0153 66.2109C19.8499 66.2109 17.2838 63.8153 17.2838 60.86C17.2838 57.9048 19.8499 55.5091 23.0153 55.5091Z" stroke="#6271FF" stroke-width="3"/>
<path id="Vector_2" d="M57.4046 55.5094C60.57 55.5094 63.1361 57.9051 63.1361 60.8603C63.1361 63.8155 60.57 66.2112 57.4046 66.2112C54.2392 66.2112 51.6731 63.8155 51.6731 60.8603C51.6731 57.9051 54.2392 55.5094 57.4046 55.5094Z" stroke="#5061FF" stroke-width="3"/>
<path id="Vector_3" d="M2.99808 2.3276L3.46588 0.902413H3.46588L2.99808 2.3276ZM2.46779 0.574809C1.68068 0.316454 0.833165 0.745095 0.574809 1.53221C0.316454 2.31932 0.745095 3.16684 1.53221 3.42519L2.46779 0.574809ZM11.8805 6.71944L13.0909 5.83347L13.0909 5.83347L11.8805 6.71944ZM16.855 43.3311L15.8026 44.3999L16.855 43.3311ZM73.2916 26.5527L74.7563 26.876L74.7584 26.8663L73.2916 26.5527ZM71.382 35.2023L72.8467 35.5257L71.382 35.2023ZM73.5848 15.1885L72.4272 16.1424L73.5848 15.1885ZM67.4678 44.9871L66.5595 43.7933L67.4678 44.9871ZM14.8029 26.1148V16.4059H11.8029V26.1148H14.8029ZM3.46588 0.902413L2.46779 0.574809L1.53221 3.42519L2.53029 3.75279L3.46588 0.902413ZM36.1502 48.0909H56.4126V45.0909H36.1502V48.0909ZM14.8029 16.4059C14.8029 13.8599 14.8052 11.8225 14.6151 10.1828C14.4204 8.50336 14.0105 7.08986 13.0909 5.83347L10.6701 7.6054C11.1728 8.29221 11.4742 9.14085 11.635 10.5283C11.8005 11.9555 11.8029 13.7898 11.8029 16.4059H14.8029ZM2.53029 3.75279C5.04951 4.57968 6.81981 5.16309 8.14625 5.77071C9.43898 6.3629 10.166 6.91668 10.6701 7.6054L13.0909 5.83347C12.1727 4.57902 10.9452 3.75309 9.39566 3.04326C7.87981 2.34888 5.92006 1.70796 3.46588 0.902413L2.53029 3.75279ZM11.8029 26.1148C11.8029 31.3225 11.8583 34.9599 12.3621 37.7061C12.8876 40.5705 13.9111 42.5373 15.8026 44.3999L17.9075 42.2623C16.4884 40.8649 15.7358 39.4703 15.3129 37.1648C14.8683 34.7413 14.8029 31.4004 14.8029 26.1148H11.8029ZM36.1502 45.0909C30.7802 45.0909 26.9013 45.0878 23.9448 44.6964C21.029 44.3104 19.2367 43.5712 17.9075 42.2623L15.8026 44.3999C17.7838 46.3508 20.3109 47.2415 23.551 47.6705C26.7503 48.094 30.8638 48.0909 36.1502 48.0909V45.0909ZM13.3029 14.6299H59.6546V11.6299H13.3029V14.6299ZM71.8269 26.2293L69.9173 34.8789L72.8467 35.5257L74.7563 26.876L71.8269 26.2293ZM59.6546 14.6299C62.8997 14.6299 65.8709 14.6316 68.2422 14.8791C69.4248 15.0025 70.3913 15.1812 71.1304 15.4236C71.8871 15.6719 72.2607 15.9404 72.4272 16.1424L74.7424 14.2346C74.0607 13.4073 73.0737 12.9039 72.0655 12.5731C71.0396 12.2366 69.8367 12.0292 68.5536 11.8953C65.9935 11.6281 62.8477 11.6299 59.6546 11.6299V14.6299ZM74.7584 26.8663C75.4117 23.8107 75.94 21.3579 76.0684 19.4151C76.1997 17.4291 75.938 15.6856 74.7424 14.2346L72.4272 16.1424C72.9278 16.75 73.1827 17.5867 73.0749 19.2172C72.9643 20.8909 72.4978 23.0909 71.8247 26.2391L74.7584 26.8663ZM56.4126 48.0909C59.3598 48.0909 61.6971 48.0932 63.5567 47.8808C65.4499 47.6644 67.0228 47.2104 68.376 46.1809L66.5595 43.7933C65.8046 44.3676 64.8322 44.7155 63.2161 44.9001C61.5663 45.0886 59.4301 45.0909 56.4126 45.0909V48.0909ZM69.9173 34.8789C69.3067 37.6445 68.8769 39.5779 68.353 41.0292C67.846 42.4338 67.3041 43.2269 66.5595 43.7933L68.376 46.1809C69.7396 45.1434 70.5527 43.7711 71.1748 42.0477C71.78 40.3711 72.2532 38.214 72.8467 35.5257L69.9173 34.8789Z" fill="#5061FF"/>
<path id="Vector_4" d="M36.389 29.8247L40.7559 34.1055L51.6731 23.4036" stroke="#5061FF" stroke-width="3" stroke-linecap="round" stroke-linejoin="round"/>
</g>
</svg>
