<svg width="330" height="214" viewBox="0 0 330 214" fill="none" xmlns="http://www.w3.org/2000/svg">
<path d="M239.094 137.362L198.145 151.933" stroke="#CEE4FF" stroke-width="1.60375"/>
<path d="M239.094 137.362L293.511 78.252" stroke="#CEE4FF" stroke-width="1.60375"/>
<path d="M375 48.9721L293.511 78.2521" stroke="#CEE4FF" stroke-width="1.60375"/>
<path d="M375 19.4169L293.511 78.2519" stroke="#CEE4FF" stroke-width="1.60375"/>
<path d="M157.469 137.362L198.145 151.934" stroke="#CEE4FF" stroke-width="1.60375"/>
<path d="M293.511 166.642L198.145 151.933" stroke="#CEE4FF" stroke-width="1.60375"/>
<path d="M293.511 166.642L348.064 137.087" stroke="#CEE4FF" stroke-width="1.60375"/>
<path d="M129.58 196.197L198.146 151.934" stroke="#CEE4FF" stroke-width="1.60375"/>
<path d="M129.58 196.197L75.8436 137.774" stroke="#CEE4FF" stroke-width="1.60375"/>
<path d="M21.2908 166.505L75.8436 137.774" stroke="#CEE4FF" stroke-width="1.60375"/>
<path d="M21.2908 166.505L-5.9176 137.225" stroke="#CEE4FF" stroke-width="1.60375"/>
<path d="M21.2908 166.505L-5.78156 196.06" stroke="#CEE4FF" stroke-width="1.60375"/>
<rect x="194" y="147" width="9.76458" height="9.76458" rx="4.88229" fill="#0069FF"/>
<path d="M156 137.953C156 136.874 156.874 136 157.953 136C159.031 136 159.906 136.874 159.906 137.953C159.906 139.031 159.031 139.906 157.953 139.906C156.874 139.906 156 139.031 156 137.953Z" fill="#0069FF"/>
<path d="M237 136.953C237 135.874 237.874 135 238.953 135C240.031 135 240.906 135.874 240.906 136.953C240.906 138.031 240.031 138.906 238.953 138.906C237.874 138.906 237 138.031 237 136.953Z" fill="#0069FF"/>
<path d="M291 166.953C291 165.874 291.874 165 292.953 165C294.031 165 294.906 165.874 294.906 166.953C294.906 168.031 294.031 168.906 292.953 168.906C291.874 168.906 291 168.031 291 166.953Z" fill="#0069FF"/>
<path d="M292 77.9529C292 76.8743 292.874 76 293.953 76C295.031 76 295.906 76.8743 295.906 77.9529C295.906 79.0315 295.031 79.9058 293.953 79.9058C292.874 79.9058 292 79.0315 292 77.9529Z" fill="#0069FF"/>
<path d="M74 137.953C74 136.874 74.8743 136 75.9529 136C77.0315 136 77.9058 136.874 77.9058 137.953C77.9058 139.031 77.0315 139.906 75.9529 139.906C74.8743 139.906 74 139.031 74 137.953Z" fill="#0069FF"/>
<path d="M19 166.953C19 165.874 19.8743 165 20.9529 165C22.0315 165 22.9058 165.874 22.9058 166.953C22.9058 168.031 22.0315 168.906 20.9529 168.906C19.8743 168.906 19 168.031 19 166.953Z" fill="#0069FF"/>
<path d="M128 195.953C128 194.874 128.874 194 129.953 194C131.031 194 131.906 194.874 131.906 195.953C131.906 197.031 131.031 197.906 129.953 197.906C128.874 197.906 128 197.031 128 195.953Z" fill="#0069FF"/>
</svg>
