<svg width="330" height="213" viewBox="0 0 330 213" fill="none" xmlns="http://www.w3.org/2000/svg">
<path d="M98.906 137.28L139.855 151.851" stroke="#CEE4FF" stroke-width="1.60375"/>
<path d="M98.906 137.28L44.4892 78.17" stroke="#CEE4FF" stroke-width="1.60375"/>
<path d="M-36.9999 48.89L44.4893 78.1701" stroke="#CEE4FF" stroke-width="1.60375"/>
<path d="M-37 19.3349L44.489 78.1698" stroke="#CEE4FF" stroke-width="1.60375"/>
<path d="M180.531 137.28L139.855 151.852" stroke="#CEE4FF" stroke-width="1.60375"/>
<path d="M44.4891 166.56L139.855 151.851" stroke="#CEE4FF" stroke-width="1.60375"/>
<path d="M44.4892 166.56L-10.0637 137.005" stroke="#CEE4FF" stroke-width="1.60375"/>
<path d="M208.42 196.115L139.854 151.852" stroke="#CEE4FF" stroke-width="1.60375"/>
<path d="M208.42 196.115L262.156 137.692" stroke="#CEE4FF" stroke-width="1.60375"/>
<path d="M316.709 166.423L262.156 137.692" stroke="#CEE4FF" stroke-width="1.60375"/>
<path d="M316.709 166.423L343.918 137.143" stroke="#CEE4FF" stroke-width="1.60375"/>
<path d="M316.709 166.423L343.782 195.978" stroke="#CEE4FF" stroke-width="1.60375"/>
<rect width="9.76458" height="9.76458" rx="4.88229" transform="matrix(-1 0 0 1 144 146.918)" fill="#0069FF"/>
<path d="M182 137.871C182 136.792 181.126 135.918 180.047 135.918C178.969 135.918 178.094 136.792 178.094 137.871C178.094 138.949 178.969 139.824 180.047 139.824C181.126 139.824 182 138.949 182 137.871Z" fill="#0069FF"/>
<path d="M101 136.871C101 135.792 100.126 134.918 99.0471 134.918C97.9685 134.918 97.0942 135.792 97.0942 136.871C97.0942 137.949 97.9685 138.824 99.0471 138.824C100.126 138.824 101 137.949 101 136.871Z" fill="#0069FF"/>
<path d="M47 166.871C47 165.792 46.1257 164.918 45.0471 164.918C43.9685 164.918 43.0942 165.792 43.0942 166.871C43.0942 167.949 43.9685 168.824 45.0471 168.824C46.1257 168.824 47 167.949 47 166.871Z" fill="#0069FF"/>
<path d="M46 77.8709C46 76.7923 45.1257 75.918 44.0471 75.918C42.9685 75.918 42.0942 76.7923 42.0942 77.8709C42.0942 78.9494 42.9685 79.8238 44.0471 79.8238C45.1257 79.8238 46 78.9494 46 77.8709Z" fill="#0069FF"/>
<path d="M264 137.871C264 136.792 263.126 135.918 262.047 135.918C260.969 135.918 260.094 136.792 260.094 137.871C260.094 138.949 260.969 139.824 262.047 139.824C263.126 139.824 264 138.949 264 137.871Z" fill="#0069FF"/>
<path d="M319 166.871C319 165.792 318.126 164.918 317.047 164.918C315.969 164.918 315.094 165.792 315.094 166.871C315.094 167.949 315.969 168.824 317.047 168.824C318.126 168.824 319 167.949 319 166.871Z" fill="#0069FF"/>
<path d="M210 195.871C210 194.792 209.126 193.918 208.047 193.918C206.969 193.918 206.094 194.792 206.094 195.871C206.094 196.949 206.969 197.824 208.047 197.824C209.126 197.824 210 196.949 210 195.871Z" fill="#0069FF"/>
</svg>
