<svg width="62" height="62" viewBox="0 0 62 62" fill="none" xmlns="http://www.w3.org/2000/svg">
<g id="Linear / Electronic, Devices / Headphones Round Sound">
<rect width="62" height="62" fill="white"/>
<path id="Vector" d="M56.8334 43.9167V31.0001C56.8334 16.7327 45.2674 5.16675 31 5.16675C16.7327 5.16675 5.16669 16.7327 5.16669 31.0001V46.5001" stroke="black" stroke-width="3"/>
<path id="Vector_2" d="M20.6667 39.2333C20.6667 37.7392 20.6667 36.9921 20.4884 36.3988C20.076 35.0268 18.9993 33.9862 17.6591 33.6642C17.0796 33.525 16.3674 33.5838 14.9432 33.7014C12.4716 33.9055 11.2358 34.0075 10.2283 34.3972C7.90512 35.2959 6.1326 37.3018 5.45887 39.7947C5.16669 40.8758 5.16669 42.1723 5.16669 44.7653V45.2443C5.16669 47.9029 5.16669 49.2322 5.48456 50.3569C6.10841 52.5643 7.60018 54.3901 9.58762 55.3789C10.6003 55.8827 11.8558 56.09 14.3667 56.5046C16.033 56.7798 16.8662 56.9174 17.5404 56.7785C18.869 56.5048 19.9647 55.5257 20.4304 54.1958C20.6667 53.5209 20.6667 52.6388 20.6667 50.8745V39.2333Z" stroke="black" stroke-width="3"/>
<path id="Vector_3" d="M41.3333 39.2333C41.3333 37.7392 41.3333 36.9921 41.5116 36.3988C41.924 35.0268 43.0007 33.9862 44.3409 33.6642C44.9204 33.525 45.6326 33.5838 47.0568 33.7014C49.5284 33.9055 50.7642 34.0075 51.7717 34.3972C54.0949 35.2959 55.8674 37.3018 56.5411 39.7947C56.8333 40.8758 56.8333 42.1723 56.8333 44.7653V45.2443C56.8333 47.9029 56.8333 49.2322 56.5154 50.3569C55.8916 52.5643 54.3998 54.3901 52.4124 55.3789C51.3997 55.8827 50.1442 56.09 47.6333 56.5046C45.967 56.7798 45.1338 56.9174 44.4596 56.7785C43.131 56.5048 42.0353 55.5257 41.5696 54.1958C41.3333 53.5209 41.3333 52.6388 41.3333 50.8745V39.2333Z" stroke="black" stroke-width="3"/>
<path id="Vector_4" d="M31 16.7917L31 29.7084" stroke="black" stroke-width="3" stroke-linecap="round"/>
<path id="Vector_5" d="M38.75 20.6667L38.75 25.8334" stroke="black" stroke-width="3" stroke-linecap="round"/>
<path id="Vector_6" d="M23.25 20.6667L23.25 25.8334" stroke="black" stroke-width="3" stroke-linecap="round"/>
</g>
</svg>
