<svg width="48" height="49" viewBox="0 0 48 49" fill="none" xmlns="http://www.w3.org/2000/svg">
<g id="Instagram">
<g id="back">
<path id="path-1" d="M0 24.2529C0 10.9981 10.7452 0.25293 24 0.25293C37.2548 0.25293 48 10.9981 48 24.2529C48 37.5078 37.2548 48.2529 24 48.2529C10.7452 48.2529 0 37.5078 0 24.2529Z" fill="white"/>
</g>
<g id="Shape Clipped">
<mask id="mask0_182_23" style="mask-type:luminance" maskUnits="userSpaceOnUse" x="0" y="0" width="48" height="49">
<path id="path-1_2" fill-rule="evenodd" clip-rule="evenodd" d="M0 24.2529C0 10.9981 10.7452 0.25293 24 0.25293C37.2548 0.25293 48 10.9981 48 24.2529C48 37.5078 37.2548 48.2529 24 48.2529C10.7452 48.2529 0 37.5078 0 24.2529Z" fill="white"/>
</mask>
<g mask="url(#mask0_182_23)">
<path id="Shape" fill-rule="evenodd" clip-rule="evenodd" d="M18.7232 11.5305C20.0886 11.4683 20.5248 11.4531 24.0012 11.4531H23.9972C27.4745 11.4531 27.9092 11.4683 29.2745 11.5305C30.6372 11.5929 31.5679 11.8086 32.3839 12.1251C33.2266 12.4518 33.9386 12.8891 34.6506 13.6011C35.3626 14.3126 35.7999 15.0268 36.1279 15.8686C36.4426 16.6825 36.6586 17.6127 36.7226 18.9753C36.784 20.3407 36.8 20.777 36.8 24.2533C36.8 27.7296 36.784 28.1648 36.7226 29.5301C36.6586 30.8923 36.4426 31.8227 36.1279 32.6368C35.7999 33.4784 35.3626 34.1926 34.6506 34.904C33.9394 35.616 33.2263 36.0544 32.3847 36.3814C31.5703 36.6979 30.6391 36.9137 29.2764 36.9761C27.9111 37.0382 27.4761 37.0534 23.9996 37.0534C20.5235 37.0534 20.0875 37.0382 18.7222 36.9761C17.3597 36.9137 16.4293 36.6979 15.6149 36.3814C14.7736 36.0544 14.0594 35.616 13.3482 34.904C12.6365 34.1926 12.1992 33.4784 11.872 32.6365C11.5557 31.8227 11.34 30.8925 11.2773 29.5298C11.2154 28.1645 11.2 27.7296 11.2 24.2533C11.2 20.777 11.216 20.3404 11.277 18.9751C11.3384 17.6129 11.5544 16.6825 11.8717 15.8684C12.1997 15.0268 12.637 14.3126 13.349 13.6011C14.0605 12.8894 14.7747 12.4521 15.6165 12.1251C16.4304 11.8086 17.3605 11.5929 18.7232 11.5305ZM29.2977 17.4207C29.2977 16.5724 29.9857 15.8852 30.8338 15.8852C31.6818 15.8852 32.3698 16.5726 32.3698 17.4207C32.3698 18.2687 31.6818 18.9567 30.8338 18.9567C29.9857 18.9567 29.2977 18.2687 29.2977 17.4207ZM24.0009 17.6799C20.3708 17.68 17.4277 20.6232 17.4277 24.2533C17.4277 27.8834 20.371 30.8253 24.0012 30.8253C27.6313 30.8253 30.5735 27.8834 30.5735 24.2533C30.5735 20.6231 27.6311 17.6799 24.0009 17.6799ZM28.2679 24.2533C28.2679 21.8967 26.3574 19.9865 24.0012 19.9865C21.6446 19.9865 19.7344 21.8967 19.7344 24.2533C19.7344 26.6096 21.6446 28.52 24.0012 28.52C26.3574 28.52 28.2679 26.6096 28.2679 24.2533Z" fill="black"/>
</g>
</g>
</g>
</svg>
