<svg width="185" height="25" viewBox="0 0 185 25" fill="none" xmlns="http://www.w3.org/2000/svg">
<path d="M0.865057 19.1265V0.217373H13.1634V3.08882H4.29048V8.22235H12.5263V11.0938H4.29048V16.255H13.2372V19.1265H0.865057ZM23.2164 19.4035C21.8007 19.4035 20.585 19.0926 19.5694 18.4709C18.5599 17.8492 17.7812 16.9906 17.2334 15.8949C16.6918 14.7931 16.4209 13.5251 16.4209 12.091C16.4209 10.6506 16.6979 9.37954 17.2519 8.27774C17.8059 7.16979 18.5876 6.30805 19.5971 5.69252C20.6127 5.07083 21.813 4.75999 23.1979 4.75999C24.349 4.75999 25.3677 4.97235 26.254 5.39706C27.1465 5.81562 27.8575 6.40961 28.3868 7.17902C28.9162 7.94228 29.2178 8.8348 29.2917 9.85658H26.0971C25.9678 9.17334 25.66 8.60397 25.1738 8.14848C24.6937 7.68683 24.0504 7.45601 23.2441 7.45601C22.5608 7.45601 21.9607 7.64067 21.4437 8.00999C20.9266 8.37315 20.5234 8.89635 20.2341 9.57959C19.951 10.2628 19.8094 11.0815 19.8094 12.0356C19.8094 13.0019 19.951 13.8329 20.2341 14.5285C20.5173 15.2178 20.9143 15.7503 21.4252 16.1258C21.9422 16.4951 22.5485 16.6797 23.2441 16.6797C23.7365 16.6797 24.1766 16.5874 24.5644 16.4027C24.9583 16.2119 25.2876 15.938 25.5523 15.581C25.817 15.224 25.9986 14.7901 26.0971 14.2792H29.2917C29.2116 15.2825 28.9162 16.1719 28.4053 16.9475C27.8944 17.7169 27.1989 18.3201 26.3187 18.7571C25.4384 19.188 24.4044 19.4035 23.2164 19.4035ZM38.7422 19.4035C37.3573 19.4035 36.157 19.0988 35.1414 18.4894C34.1258 17.88 33.3379 17.0275 32.7777 15.9319C32.2238 14.8362 31.9468 13.5559 31.9468 12.091C31.9468 10.626 32.2238 9.34261 32.7777 8.24081C33.3379 7.13901 34.1258 6.28342 35.1414 5.67405C36.157 5.06468 37.3573 4.75999 38.7422 4.75999C40.1272 4.75999 41.3275 5.06468 42.3431 5.67405C43.3587 6.28342 44.1435 7.13901 44.6975 8.24081C45.2576 9.34261 45.5377 10.626 45.5377 12.091C45.5377 13.5559 45.2576 14.8362 44.6975 15.9319C44.1435 17.0275 43.3587 17.88 42.3431 18.4894C41.3275 19.0988 40.1272 19.4035 38.7422 19.4035ZM38.7607 16.7259C39.5117 16.7259 40.1395 16.5197 40.6442 16.1073C41.149 15.6887 41.5244 15.1286 41.7706 14.4269C42.023 13.7252 42.1492 12.9435 42.1492 12.0817C42.1492 11.2138 42.023 10.429 41.7706 9.72732C41.5244 9.01946 41.149 8.45625 40.6442 8.03769C40.1395 7.61913 39.5117 7.40985 38.7607 7.40985C37.9913 7.40985 37.3511 7.61913 36.8402 8.03769C36.3355 8.45625 35.957 9.01946 35.7046 9.72732C35.4584 10.429 35.3353 11.2138 35.3353 12.0817C35.3353 12.9435 35.4584 13.7252 35.7046 14.4269C35.957 15.1286 36.3355 15.6887 36.8402 16.1073C37.3511 16.5197 37.9913 16.7259 38.7607 16.7259ZM56.0115 19.1265V0.217373H63.1024C64.555 0.217373 65.7738 0.488207 66.7586 1.02987C67.7496 1.57154 68.4975 2.31633 69.0022 3.26425C69.5131 4.20601 69.7686 5.27703 69.7686 6.47732C69.7686 7.68991 69.5131 8.76709 69.0022 9.70885C68.4913 10.6506 67.7373 11.3923 66.7402 11.934C65.743 12.4695 64.515 12.7373 63.0562 12.7373H58.3566V9.92121H62.5946C63.444 9.92121 64.1395 9.77348 64.6812 9.47803C65.2229 9.18257 65.623 8.77632 65.8815 8.25928C66.1462 7.74223 66.2785 7.14824 66.2785 6.47732C66.2785 5.80639 66.1462 5.21548 65.8815 4.70459C65.623 4.1937 65.2198 3.79668 64.672 3.51354C64.1303 3.22424 63.4317 3.07959 62.5761 3.07959H59.4369V19.1265H56.0115ZM76.9432 19.4127C76.0445 19.4127 75.2351 19.2526 74.5149 18.9326C73.8009 18.6063 73.2346 18.1262 72.8161 17.4922C72.4037 16.8582 72.1975 16.0765 72.1975 15.1471C72.1975 14.3469 72.3452 13.6852 72.6407 13.162C72.9361 12.6388 73.3393 12.2202 73.8502 11.9063C74.3611 11.5924 74.9366 11.3554 75.5767 11.1954C76.223 11.0292 76.8909 10.9091 77.5803 10.8353C78.4113 10.7491 79.0853 10.6722 79.6023 10.6044C80.1194 10.5306 80.4948 10.4198 80.7287 10.2721C80.9688 10.1182 81.0888 9.8812 81.0888 9.56112V9.50573C81.0888 8.81018 80.8826 8.27159 80.4702 7.88996C80.0578 7.50833 79.4638 7.31752 78.6882 7.31752C77.8696 7.31752 77.2202 7.49602 76.7401 7.85303C76.2661 8.21003 75.9461 8.63167 75.7799 9.11794L72.6591 8.67476C72.9053 7.81302 73.3116 7.09285 73.8779 6.51425C74.4442 5.92949 75.1366 5.49247 75.9553 5.20317C76.7739 4.90771 77.6788 4.75999 78.6698 4.75999C79.353 4.75999 80.0332 4.84001 80.7103 5.00004C81.3873 5.16008 82.006 5.42476 82.5661 5.79408C83.1262 6.15724 83.5756 6.65274 83.9141 7.28058C84.2588 7.90842 84.4311 8.69323 84.4311 9.63499V19.1265H81.2181V17.1783H81.1073C80.9042 17.5723 80.6179 17.9416 80.2486 18.2863C79.8855 18.6248 79.4269 18.8987 78.8729 19.108C78.3251 19.3111 77.6819 19.4127 76.9432 19.4127ZM77.8111 16.9567C78.482 16.9567 79.0637 16.8244 79.5561 16.5597C80.0486 16.2889 80.4271 15.9319 80.6918 15.4887C80.9626 15.0455 81.098 14.5623 81.098 14.0391V12.3679C80.9934 12.4541 80.8149 12.5341 80.5625 12.608C80.3163 12.6819 80.0393 12.7465 79.7316 12.8019C79.4238 12.8573 79.1191 12.9065 78.8175 12.9496C78.5159 12.9927 78.2543 13.0296 78.0327 13.0604C77.5341 13.1281 77.0879 13.2389 76.6939 13.3928C76.3 13.5467 75.9891 13.7621 75.7614 14.0391C75.5337 14.3099 75.4198 14.6608 75.4198 15.0917C75.4198 15.7072 75.6444 16.1719 76.0938 16.4858C76.5431 16.7998 77.1156 16.9567 77.8111 16.9567ZM91.6543 0.217373V19.1265H88.3119V0.217373H91.6543ZM101.89 19.4035C100.468 19.4035 99.2398 19.108 98.2057 18.5171C97.1778 17.92 96.3868 17.0767 95.8328 15.9873C95.2788 14.8916 95.0019 13.6021 95.0019 12.1187C95.0019 10.6598 95.2788 9.37954 95.8328 8.27774C96.393 7.16979 97.1747 6.30805 98.178 5.69252C99.1813 5.07083 100.36 4.75999 101.714 4.75999C102.588 4.75999 103.413 4.90156 104.189 5.1847C104.97 5.46169 105.66 5.89256 106.257 6.47732C106.86 7.06207 107.334 7.80686 107.679 8.71169C108.023 9.61037 108.196 10.6814 108.196 11.9248V12.9496H96.5715V10.6968H104.992C104.986 10.0566 104.847 9.48726 104.576 8.98868C104.306 8.48395 103.927 8.08693 103.441 7.79763C102.961 7.50833 102.401 7.36368 101.76 7.36368C101.077 7.36368 100.477 7.52987 99.96 7.86226C99.4429 8.18849 99.0397 8.61936 98.7504 9.15487C98.4673 9.68423 98.3226 10.2659 98.3165 10.8999V12.8665C98.3165 13.6913 98.4673 14.3992 98.7689 14.9901C99.0705 15.5749 99.4922 16.0242 100.034 16.3381C100.575 16.6459 101.209 16.7998 101.936 16.7998C102.422 16.7998 102.862 16.7321 103.256 16.5966C103.65 16.4551 103.992 16.2489 104.281 15.978C104.57 15.7072 104.789 15.3717 104.937 14.9716L108.057 15.3225C107.86 16.1473 107.485 16.8675 106.931 17.483C106.383 18.0924 105.681 18.5663 104.826 18.9049C103.97 19.2373 102.991 19.4035 101.89 19.4035ZM118.625 4.94465V7.52987H110.472V4.94465H118.625ZM112.485 1.54692H115.827V14.8608C115.827 15.3102 115.895 15.6549 116.031 15.8949C116.172 16.1288 116.357 16.2889 116.585 16.375C116.812 16.4612 117.065 16.5043 117.342 16.5043C117.551 16.5043 117.742 16.4889 117.914 16.4581C118.093 16.4274 118.228 16.3997 118.32 16.375L118.884 18.988C118.705 19.0495 118.45 19.1172 118.117 19.1911C117.791 19.265 117.391 19.308 116.917 19.3204C116.08 19.345 115.326 19.2188 114.655 18.9418C113.984 18.6587 113.451 18.2216 113.058 17.6307C112.67 17.0398 112.479 16.3012 112.485 15.4148V1.54692ZM129.022 4.94465V7.52987H120.869V4.94465H129.022ZM122.882 1.54692H126.224V14.8608C126.224 15.3102 126.292 15.6549 126.428 15.8949C126.569 16.1288 126.754 16.2889 126.981 16.375C127.209 16.4612 127.462 16.5043 127.739 16.5043C127.948 16.5043 128.139 16.4889 128.311 16.4581C128.49 16.4274 128.625 16.3997 128.717 16.375L129.28 18.988C129.102 19.0495 128.847 19.1172 128.514 19.1911C128.188 19.265 127.788 19.308 127.314 19.3204C126.477 19.345 125.723 19.2188 125.052 18.9418C124.381 18.6587 123.848 18.2216 123.455 17.6307C123.067 17.0398 122.876 16.3012 122.882 15.4148V1.54692ZM134.415 24.4446C133.959 24.4446 133.538 24.4077 133.15 24.3339C132.768 24.2661 132.463 24.1861 132.236 24.0938L133.011 21.4901C133.498 21.6317 133.931 21.6994 134.313 21.6932C134.695 21.6871 135.03 21.567 135.319 21.3331C135.615 21.1054 135.864 20.7238 136.067 20.1883L136.354 19.4219L131.211 4.94465H134.756L138.025 15.6549H138.172L141.45 4.94465H145.005L139.327 20.8438C139.062 21.5947 138.711 22.238 138.274 22.7735C137.837 23.3151 137.302 23.7276 136.668 24.0107C136.04 24.3 135.289 24.4446 134.415 24.4446ZM154.955 19.1265V0.217373H158.38V8.90558H158.611L165.988 0.217373H170.171L162.858 8.70246L170.235 19.1265H166.117L160.476 11.0199L158.38 13.4944V19.1265H154.955ZM172.738 19.1265V17.0029L180.05 7.83456V7.71453H172.978V4.94465H184.141V7.22519L177.179 16.2366V16.3566H184.381V19.1265H172.738Z" fill="#5371FF"/>
</svg>
