<svg width="371" height="253" viewBox="0 0 371 253" fill="none" xmlns="http://www.w3.org/2000/svg">
<path d="M62.6667 63.6666L0 126.333L62.9333 189.267L126 252.333L155.067 223.267C170.933 207.4 184.667 194.333 185.333 194.333C186 194.333 199.733 207.4 215.6 223.267L244.667 252.333L307.733 189.267L370.667 126.333L307.733 63.3999L244.667 0.333252L215.6 29.3999C199.733 45.2666 186 58.3332 185.333 58.3332C184.533 58.3332 171.067 45.3999 155.333 29.6666C139.6 13.9333 126.4 0.999923 126 0.999923C125.6 0.999923 97.0667 29.2666 62.6667 63.6666ZM300.267 70.5999C329.867 100.2 354 125.267 354 126.333C354 128.867 247.333 235.667 244.667 235.667C242.133 235.667 224.667 218.333 224.667 215.667C224.667 214.6 244.267 193.933 268.4 169.933L312 126.2L267.6 82.5999C243.2 58.5999 223.333 38.4666 223.333 37.6666C223.333 35.5333 242.4 16.9999 244.667 16.9999C245.733 16.9999 270.8 41.1333 300.267 70.5999ZM120.4 52.0666L120.667 79.3999L113.467 81.5333C99.3333 85.6666 87.3333 96.5999 82.6667 109.933C81.4667 113.4 80 117.267 79.4667 118.333C78.5333 119.933 73.7333 120.333 51.4667 120.733C26.6667 121 24.6667 120.867 24.6667 118.733C24.6667 115.933 116.667 23.3999 118.667 24.0666C119.467 24.3333 120.133 35.1333 120.4 52.0666ZM155.6 44.5999C167.2 56.1999 176.667 66.1999 176.667 66.9999C176.667 67.7999 172 72.9999 166.267 78.7333L155.867 89.1332L147.2 84.9999C142.533 82.8666 137.733 80.9999 136.667 80.9999C131.867 80.9999 131.333 78.3333 131.333 51.6666C131.333 27.5333 131.733 23.6666 133.867 23.6666C134.267 23.6666 144.133 33.1333 155.6 44.5999ZM255.867 85.7999C277.6 107.133 295.333 125.4 295.333 126.333C295.333 128.867 217.867 206.333 215.467 206.333C213.2 206.333 194 187.8 194 185.667C194 185 207.067 171.267 222.933 155.4L252 126.333L222.933 97.2666C207.067 81.3999 194 67.6666 194 66.9999C194 64.9999 213.2 46.1999 214.8 46.5999C215.6 46.8666 234.133 64.4666 255.867 85.7999ZM207.867 96.8666C220.133 109.133 228.667 118.6 228.133 119.533C227.467 120.467 218.667 121 200.8 121C174 121 171.333 120.467 171.333 115.667C171.333 114.6 169.467 109.8 167.333 105.133L163.2 96.4666L173.6 86.0666C179.333 80.3333 184.533 75.6666 185.333 75.6666C186.133 75.6666 196.267 85.2666 207.867 96.8666ZM137.867 92.4666C141.6 93.5333 145.2 95.3999 145.6 96.4666C146.133 97.9333 141.867 103 132.533 112.467L118.667 126.333L132.533 140.2C141.467 149.267 146.133 154.733 145.6 156.067C144.533 158.867 133.333 162.333 125.467 162.333C112.133 162.2 101.333 155.533 94.5333 143.4C91.2 137.4 90.6667 134.867 90.6667 126.333C90.6667 117.8 91.2 115.267 94.6667 109.133C103.467 93.2666 119.6 86.9999 137.867 92.4666ZM159.333 111.933C162.8 119.667 162.8 133 159.333 140.6C158 143.8 156 146.333 155.067 146.333C152.667 146.333 135.333 128.867 135.333 126.467C135.333 123.933 152.533 106.333 155.067 106.333C156 106.333 158 108.867 159.333 111.933ZM80.8 137.267C85.4667 154.6 97.8667 167 115.067 171.533L120.667 173.133V200.333C120.667 219 120.133 227.8 119.2 228.467C117.2 229.667 22.6667 135.133 23.8667 133.133C24.5333 132.2 33.7333 131.667 52 131.667H79.2L80.8 137.267ZM228.133 133.133C229.067 134.733 187.733 177 185.333 177C184.533 177 179.2 172.333 173.467 166.467L163.067 156.067L166.4 149.533C168.267 145.933 170.4 140.467 171.2 137.267L172.8 131.667H200C218.533 131.667 227.467 132.2 228.133 133.133ZM166.267 173.933C172 179.667 176.667 184.867 176.667 185.667C176.667 188.067 134.4 229.4 132.8 228.467C131.867 227.8 131.333 219 131.333 201.133C131.333 174.333 131.867 171.667 136.667 171.667C137.733 171.667 142.267 169.933 146.667 167.8C151.067 165.667 154.933 163.8 155.333 163.8C155.6 163.667 160.667 168.333 166.267 173.933Z" fill="#0A5906"/>
</svg>
