<svg width="30" height="31" viewBox="0 0 30 31" fill="none" xmlns="http://www.w3.org/2000/svg">
<g id="Navigation / Map_Pin">
<g id="Vector">
<path d="M6.25 12.9036C6.25 18.9683 11.5556 23.9837 13.904 25.9065C14.2401 26.1817 14.4101 26.3209 14.6609 26.3915C14.8561 26.4465 15.1435 26.4465 15.3387 26.3915C15.59 26.3208 15.7588 26.1829 16.0962 25.9067C18.4446 23.9838 23.7499 18.9689 23.7499 12.9041C23.7499 10.609 22.8281 8.40756 21.1871 6.78465C19.5462 5.16174 17.3207 4.25 15.0001 4.25C12.6795 4.25 10.4538 5.16188 8.81282 6.78479C7.17187 8.4077 6.25 10.6084 6.25 12.9036Z" stroke="black" stroke-width="2" stroke-linecap="round" stroke-linejoin="round"/>
<path d="M12.5 11.75C12.5 13.1307 13.6193 14.25 15 14.25C16.3807 14.25 17.5 13.1307 17.5 11.75C17.5 10.3693 16.3807 9.25 15 9.25C13.6193 9.25 12.5 10.3693 12.5 11.75Z" stroke="black" stroke-width="2" stroke-linecap="round" stroke-linejoin="round"/>
</g>
</g>
</svg>
