<svg width="30" height="31" viewBox="0 0 30 31" fill="none" xmlns="http://www.w3.org/2000/svg">
<g id="Linear / Call / Phone Rounded">
<path id="Vector" d="M13.797 5.89521L14.6083 7.34887C15.3404 8.66073 15.0465 10.3817 13.8934 11.5347C13.8934 11.5348 13.8934 11.5347 13.8934 11.5348C13.8933 11.5349 12.4948 12.9335 15.0306 15.4694C17.5658 18.0045 18.9644 16.6074 18.9652 16.6066C18.9653 16.6066 18.9653 16.6066 18.9653 16.6066C20.1184 15.4535 21.8393 15.1596 23.1511 15.8917L24.6048 16.703C26.5857 17.8085 26.8196 20.5866 25.0785 22.3277C24.0322 23.374 22.7505 24.1881 21.3336 24.2418C18.9485 24.3322 14.8978 23.7286 10.8346 19.6654C6.77141 15.6021 6.16777 11.5515 6.25819 9.16636C6.3119 7.7495 7.126 6.46779 8.17226 5.42154C9.91344 3.68035 12.6915 3.9143 13.797 5.89521Z" stroke="black" stroke-width="2" stroke-linecap="round"/>
</g>
</svg>
