<svg width="58" height="58" viewBox="0 0 58 58" fill="none" xmlns="http://www.w3.org/2000/svg">
<g id="Linear / Messages, Coversation / Plain">
<path id="Vector" d="M45.0363 37.8694L49.1843 25.4252C52.808 14.5541 54.6199 9.11854 51.7507 6.24931C48.8814 3.38007 43.4459 5.19192 32.5748 8.81562L20.1306 12.9637C11.3565 15.8884 6.96951 17.3507 5.72285 19.4951C4.53688 21.5351 4.53688 24.0547 5.72285 26.0947C6.96951 28.2391 11.3565 29.7014 20.1305 32.6261C21.5394 33.0957 22.2438 33.3305 22.8325 33.7247C23.4031 34.1067 23.8933 34.5968 24.2753 35.1674C24.6694 35.7562 24.9043 36.4606 25.3739 37.8694C28.2985 46.6434 29.7609 51.0304 31.9053 52.2771C33.9453 53.4631 36.4648 53.4631 38.5048 52.2771C40.6492 51.0305 42.1116 46.6434 45.0363 37.8694Z" stroke="black" stroke-width="3"/>
<path id="Vector_2" d="M38.9583 21.1618C39.5474 20.5793 39.5526 19.6296 38.9701 19.0406C38.3876 18.4515 37.4378 18.4463 36.8488 19.0288L38.9583 21.1618ZM25.5484 34.4239L38.9583 21.1618L36.8488 19.0288L23.4389 32.2909L25.5484 34.4239Z" fill="black"/>
</g>
</svg>
